<?xml version="1.0" encoding="utf-8"?>
<svg viewBox="10.0006 9.9988 79.9987 80.0014" width="79.9987px" height="80.0014px" xmlns="http://www.w3.org/2000/svg">
  <path d="m23.074 40.727c0.39453-7.3203 2.3906-13.418 5.4297-18.211 4.9805-7.8477 12.727-12.125 20.609-12.492 7.8945-0.36328 15.859 3.2031 21.242 10.887 4.6133 6.5898 7.2891 16.137 6.5117 28.734-0.57031 0.28516-1.1211 0.57422-1.6445 0.85156-0.88672 0.47266-1.6875 0.92188-2.3906 1.3125l-0.003906 0.003906c-0.83984 0.46875-1.5 0.83594-2.0156 1.0938-0.20703 0.10547-0.46484 0.17578-1.0898-0.023438-0.74609-0.23828-1.6602-0.74609-2.9805-1.582-0.28125-0.17578-0.57031-0.36328-0.875-0.55859l-0.089844-0.058594c-2.3398-1.5078-5.4805-3.5273-9.2969-4.3438-3.7305-0.80469-7.0625-0.070313-9.832 1.0312-0.375-1.8633-1.0391-3.6641-1.9375-5.2812-1.6641-2.9961-4.3242-5.6719-7.8477-6.6797-3.6836-1.0508-7.6445-0.097656-11.344 2.9531-0.82031 0.67969-1.6406 1.4648-2.4453 2.3633zm32.484-16.645c0.60547 0.14453 1.1758 0.48047 1.707 0.96094 1.6094 1.4648 2.3203 2.8633 2.0156 4.2656-0.14453 0.65625-0.48828 1.1914-0.85938 1.625-0.066406 0.082031-0.14062 0.16016-0.21484 0.23828 0.57031 0.44922 1.1016 1.0156 1.4375 1.6875 0.28906 0.58594 0.4375 1.2656 0.3125 2-0.125 0.73047-0.5 1.4297-1.1055 2.0898-0.73437 0.79688-1.6562 1.0938-2.6016 1.0469-0.90234-0.046875-1.8008-0.39844-2.6133-0.84766-1.6289-0.90234-3.2344-2.3672-4.3438-3.4844-0.24219-0.24219-0.34375-0.59375-0.26562-0.92969 0.34375-1.5 1.1367-4.2227 2.3477-6.1914 0.59375-0.96484 1.3867-1.9141 2.4219-2.3281 0.54297-0.21875 1.1406-0.28125 1.7617-0.13281zm-11.559 2.918c0-0.55078-0.44922-1-1-1s-1 0.44922-1 1v4c0 0.55078 0.44922 1 1 1s1-0.44922 1-1zm19-1c0.55078 0 1 0.44922 1 1v4c0 0.55078-0.44922 1-1 1s-1-0.44922-1-1v-4c0-0.55078 0.44922-1 1-1z" fill-rule="evenodd" style="fill: rgb(88, 204, 5); stroke-width: 0px;" transform="matrix(1, 0, 0, 1, 1.4210854715202004e-14, 7.105427357601002e-15)"/>
  <path d="m16.77 50.512c-1.4609 0.39453-2.6758 0.94922-3.6562 1.6289-1.9414 1.3516-2.9297 3.1797-3.0898 5.0859-0.30469 3.6211 2.3906 7.2461 6.3008 8.2109 2.9609 10.504 8.6133 17.258 16.336 20.973 7.7188 3.7148 17.375 4.3281 28.215 2.8359 17.598-2.4258 23.227-17.09 23.898-23.895 0.41016-0.28125 0.83203-0.60937 1.2422-0.99219 1.9453-1.8086 3.6914-4.793 3.9648-9.7656 0.074219-1.3359-0.074219-2.457-0.47656-3.3555-0.41797-0.92578-1.082-1.5703-1.9297-1.9336-1.5898-0.69141-3.6367-0.32813-5.5352 0.30078-1.9609 0.64844-4.043 1.6758-5.875 2.6562-0.86719 0.46484-1.6602 0.90625-2.3633 1.2969v0.003906c-0.82422 0.45703-1.5273 0.85156-2.0938 1.1328-0.78906 0.39844-1.6094 0.40625-2.5898 0.09375-1.0195-0.32422-2.1328-0.96875-3.4453-1.7969-0.28516-0.18359-0.58203-0.37109-0.88672-0.56641-2.3828-1.5352-5.2656-3.3906-8.7227-4.1328-3.4141-0.73047-6.4844 0.003906-9.1211 1.1211 0.078125 0.95703 0.078125 1.9219-0.003906 2.875-0.019531 0.1875-0.054688 0.375-0.10547 0.55469-0.92188 3.2148-3.0273 5.2383-5.7305 6.2617-2.5 0.94531-5.375 1-8.0273 0.80078-2.3594-0.17578-4.8516-0.57812-7.1484-0.95312l-0.078125-0.011719c-0.30469-0.046875-0.60938-0.097656-0.90625-0.14453-2.668-0.42969-4.9883-0.76172-6.9062-0.76172-0.98438 0-1.9336-0.47656-2.5078-1.3086-0.57812-0.83984-0.69141-1.918-0.28906-2.8633 0.50391-1.1797 1.0156-2.2969 1.5312-3.3516z" style="fill: rgb(88, 204, 5);" transform="matrix(1, 0, 0, 1, 1.4210854715202004e-14, 7.105427357601002e-15)"/>
  <path d="m42.965 43.062c1.4961 2.6914 2.2578 5.957 1.9805 9.0469-0.007812 0.0625-0.019531 0.12109-0.035156 0.18359-0.73828 2.5703-2.3672 4.125-4.5195 4.9414-2.0781 0.78906-4.5977 0.87109-7.168 0.67969-2.2695-0.17187-4.6953-0.5625-7.0234-0.94141h-0.007813c-0.3125-0.050781-0.625-0.10156-0.93359-0.15234-2.6484-0.42578-5.1211-0.78516-7.2227-0.78516-0.34375 0-0.66797-0.16797-0.85938-0.44531-0.19141-0.27734-0.23047-0.63281-0.097656-0.94141 3.1367-7.3438 6.4492-12.051 9.7148-14.742 3.2969-2.7188 6.5938-3.4102 9.5195-2.5742 2.8672 0.82031 5.1602 3.0469 6.6523 5.7305z" style="fill: rgb(137, 227, 25);" transform="matrix(1, 0, 0, 1, 1.4210854715202004e-14, 7.105427357601002e-15)"/>
</svg>
